<mxfile host="app.diagrams.net" modified="2022-09-19T08:46:02.933Z" agent="5.0 (Macintosh; Intel Mac OS X 10_15_7) AppleWebKit/537.36 (KHTML, like Gecko) Chrome/103.0.0.0 Safari/537.36" etag="gYnAZV4lAChqiJhsOv_f" version="20.2.4" type="github">
  <diagram name="Page-1" id="197159a0-c6a4-9194-75a8-e4174976684c">
    <mxGraphModel dx="2036" dy="1131" grid="0" gridSize="10" guides="1" tooltips="0" connect="1" arrows="1" fold="1" page="1" pageScale="1.5" pageWidth="1169" pageHeight="826" background="none" math="0" shadow="0">
      <root>
        <mxCell id="0" style=";html=1;" />
        <mxCell id="1" style=";html=1;" parent="0" />
        <mxCell id="ELVHJH7wAUli9vDnd3ba-23" value="" style="edgeStyle=orthogonalEdgeStyle;rounded=0;orthogonalLoop=1;jettySize=auto;html=1;" parent="1" source="ELVHJH7wAUli9vDnd3ba-20" target="ELVHJH7wAUli9vDnd3ba-22" edge="1">
          <mxGeometry relative="1" as="geometry" />
        </mxCell>
        <mxCell id="ELVHJH7wAUli9vDnd3ba-20" value="资产引入" style="ellipse;whiteSpace=wrap;html=1;" parent="1" vertex="1">
          <mxGeometry x="510" y="210" width="140" height="60" as="geometry" />
        </mxCell>
        <mxCell id="ELVHJH7wAUli9vDnd3ba-25" style="edgeStyle=orthogonalEdgeStyle;rounded=0;orthogonalLoop=1;jettySize=auto;html=1;" parent="1" source="ELVHJH7wAUli9vDnd3ba-22" target="ELVHJH7wAUli9vDnd3ba-24" edge="1">
          <mxGeometry relative="1" as="geometry" />
        </mxCell>
        <mxCell id="ELVHJH7wAUli9vDnd3ba-22" value="数据对齐" style="ellipse;whiteSpace=wrap;html=1;" parent="1" vertex="1">
          <mxGeometry x="510" y="320" width="140" height="60" as="geometry" />
        </mxCell>
        <mxCell id="ELVHJH7wAUli9vDnd3ba-27" value="" style="edgeStyle=orthogonalEdgeStyle;rounded=0;orthogonalLoop=1;jettySize=auto;html=1;" parent="1" source="ELVHJH7wAUli9vDnd3ba-24" target="ELVHJH7wAUli9vDnd3ba-26" edge="1">
          <mxGeometry relative="1" as="geometry" />
        </mxCell>
        <mxCell id="ELVHJH7wAUli9vDnd3ba-24" value="标准化" style="ellipse;whiteSpace=wrap;html=1;" parent="1" vertex="1">
          <mxGeometry x="510" y="440" width="140" height="60" as="geometry" />
        </mxCell>
        <mxCell id="ELVHJH7wAUli9vDnd3ba-29" style="edgeStyle=orthogonalEdgeStyle;rounded=0;orthogonalLoop=1;jettySize=auto;html=1;entryX=0.5;entryY=0;entryDx=0;entryDy=0;" parent="1" source="ELVHJH7wAUli9vDnd3ba-26" target="ELVHJH7wAUli9vDnd3ba-28" edge="1">
          <mxGeometry relative="1" as="geometry" />
        </mxCell>
        <mxCell id="ELVHJH7wAUli9vDnd3ba-31" style="edgeStyle=orthogonalEdgeStyle;rounded=0;orthogonalLoop=1;jettySize=auto;html=1;" parent="1" source="ELVHJH7wAUli9vDnd3ba-26" target="ELVHJH7wAUli9vDnd3ba-30" edge="1">
          <mxGeometry relative="1" as="geometry" />
        </mxCell>
        <mxCell id="ELVHJH7wAUli9vDnd3ba-26" value="拆分" style="ellipse;whiteSpace=wrap;html=1;" parent="1" vertex="1">
          <mxGeometry x="510" y="550" width="140" height="60" as="geometry" />
        </mxCell>
        <mxCell id="ELVHJH7wAUli9vDnd3ba-28" value="LR&lt;br&gt;1W训练数据" style="ellipse;whiteSpace=wrap;html=1;" parent="1" vertex="1">
          <mxGeometry x="390" y="690" width="140" height="60" as="geometry" />
        </mxCell>
        <mxCell id="ELVHJH7wAUli9vDnd3ba-30" value="LR&lt;br&gt;10W训练数据" style="ellipse;whiteSpace=wrap;html=1;" parent="1" vertex="1">
          <mxGeometry x="630" y="690" width="140" height="60" as="geometry" />
        </mxCell>
        <mxCell id="ELVHJH7wAUli9vDnd3ba-32" value="根据初始化权重值&lt;br&gt;资产引入，数据对齐，标准化，拆分初始化权重为1&lt;br&gt;LR 1W训练集初始化权重为2&lt;br&gt;LR 10W训练集初始化权重为2" style="text;html=1;strokeColor=none;fillColor=none;align=left;verticalAlign=middle;whiteSpace=wrap;rounded=0;" parent="1" vertex="1">
          <mxGeometry x="871" y="605" width="398" height="87" as="geometry" />
        </mxCell>
      </root>
    </mxGraphModel>
  </diagram>
</mxfile>
